# xmcd CD database file
#
# Track frame offsets:
#	150
#	3776
#	27438
#	51643
#	71292
#	87619
#	104007
#	129217
#	144230
#	160198
#	180783
#
# Disc length: 2724 seconds
#
# Revision: 0
# Processed by: cddbd v1.5.1PL0 Copyright (c) Steve Scherf et al.
# Submitted via: CDex 1.51
#
DISCID=880aa20b
DTITLE=The Rust - The Rust
DYEAR=1900
DGENRE=Blues
TTITLE0=2359
TTITLE1=Midnight Encounter
TTITLE2=Solid
TTITLE3=Unheard
TTITLE4=Never Give In
TTITLE5=Everlasting Wave
TTITLE6=Bent
TTITLE7=Odd Sanity
TTITLE8=I Heard You (The FirstTime)
TTITLE9=The Balance
TTITLE10=New Arrival
EXTD=
EXTT0=
EXTT1=
EXTT2=
EXTT3=
EXTT4=
EXTT5=
EXTT6=
EXTT7=
EXTT8=
EXTT9=
EXTT10=
PLAYORDER=
